<?xml version="1.0" encoding="utf-8"?>
<?xml-stylesheet type="text/xsl" href="rss1.xsl"?>
<rss version="2.0" xmlns:atom="http://www.w3.org/2005/Atom" xmlns:content="http://purl.org/rss/1.0/modules/content/" xmlns:dc="http://purl.org/dc/elements/1.1/" xmlns:media="http://search.yahoo.com/mrss/">
<channel>
 <title>Getty</title>
 <link>http://www.gettyimg.com/</link>
 <atom:link href="http://www.gettyimg.com/" rel="self" type="application/rss+xml" />

 
                <item>
                <title><![CDATA[【HD Live Performances】WEB-RiP - Charlotte Perrelli, Carola, Conchita Wurst - Waterloo (Live at Eurovision Song Contest 2024) [1080p, AAC]]]></title>
                <link><![CDATA[https://sharemania.us/threads/charlotte-perrelli-carola-conchita-wurst-waterloo-live-at-eurovision-song-contest-2024-1080p-aac.244177/]]></link>
                <description><![CDATA[<article>
<blockquote class="messageText SelectQuoteContainer ugc baseHtml">
Charlotte Perrelli, Carola &amp; Conchita Wurst perform Abba's 1974 winning Eurovision hit "Waterloo" live at Eurovision Song Contest 2024 in Malmö, Sweden, 11.05.2024.<br>
Web-Rip from the stream at Eurovision.de (German broadcaster), not the best but it does the job.<br>
1080p with 320 kb/s AAC Audio.<br>
<br>
Enjoy ;)<br>
<br>
<img src="https://i.postimg.cc/qRq1vsvT/Charlotte-Perrelli-Carola-Conchita-Wurst-Waterloo-ESC-2024-mp4-thumbs.png" class="bbCodeImage LbImage" alt="[​IMG]" data-url="https://i.postimg.cc/qRq1vsvT/Charlotte-Perrelli-Carola-Conchita-Wurst-Waterloo-ESC-2024-mp4-thumbs.png" style=""><br>
<br>
<div class="ToggleTriggerAnchor bbCodeSpoilerContainer">
<button type="button" class="button bbCodeSpoilerButton ToggleTrigger Tooltip JsOnly" data-target="> .SpoilerTarget"><span>Spoiler: <span class="SpoilerTitle">Mediainfo</span></span></button>
<div class="SpoilerTarget bbCodeSpoilerText"><b>General</b><br>
Complete name : D:\Charlotte Perrelli, Carola, Conchita Wurst - Waterloo - ESC 2024.mp4<br>
Format : MPEG-4<br>
Format profile : Base Media / Version 2<br>
Codec ID : mp42 (mp42/isom)<br>
File size : 387 MiB<br>
Duration : 5 min 10 s<br>
Overall bit rate : 10.4 Mb/s<br>
Encoded date : UTC 2024-05-11 22:05:28<br>
Tagged date : UTC 2024-05-11 22:05:28<br>
<br>
<b>Video</b><br>
ID : 1<br>
Format : AVC<br>
Format/Info : Advanced Video Codec<br>
Format profile : Baseline@L4.2<br>
Format settings : 3 Ref Frames<br>
Format settings, CABAC : No<br>
Format settings, Reference frames : 3 frames<br>
Format settings, GOP : M=1, N=30<br>
Muxing mode : Container profile=Baseline@3.0<br>
Codec ID : avc1<br>
Codec ID/Info : Advanced Video Coding<br>
Duration : 5 min 10 s<br>
Bit rate : 10.1 Mb/s<br>
Width : 1 920 pixels<br>
Height : 1 080 pixels<br>
Display aspect ratio : 16:9<br>
Frame rate mode : Constant<br>
Frame rate : 60.000 FPS<br>
Standard : Component<br>
Color space : YUV<br>
Chroma subsampling : 4:2:0<br>
Bit depth : 8 bits<br>
Scan type : Progressive<br>
Bits/(Pixel*Frame) : 0.081<br>
Stream size : 374 MiB (97%)<br>
Language : English<br>
Color range : Limited<br>
Color primaries : BT.709<br>
Transfer characteristics : BT.709<br>
Matrix coefficients : BT.709<br>
Codec configuration box : avcC<br>
<br>
<b>Audio</b><br>
ID : 2<br>
Format : AAC LC<br>
Format/Info : Advanced Audio Codec Low Complexity<br>
Codec ID : mp4a-40-2<br>
Duration : 5 min 10 s<br>
Source duration : 5 min 10 s<br>
Bit rate mode : Constant<br>
Bit rate : 320 kb/s<br>
Channel(s) : 2 channels<br>
Channel layout : L R<br>
Sampling rate : 44.1 kHz<br>
Frame rate : 43.066 FPS (1024 SPF)<br>
Compression mode : Lossy<br>
Stream size : 11.9 MiB (3%)<br>
Source stream size : 11.9 MiB (3%)<br>
Title : Stereo<br>
Language : English<br>
Default : Yes<br>
Alternate group : 1</div>
</div><br>
<span style="font-size: 18px"><b>Download:</b></span><br>
<span style="font-size: 15px">
<div class="bbCodeBlock bbCodeVfcHH HiddenContent">
<div class="attribution type">Hidden Content:</div>
<blockquote>You must either reply or click 'Like' to see the hidden information contained here.</blockquote>
</div></span>
<div class="messageTextEndMarker">&nbsp;</div>
</blockquote>
</article>]]></description>
                <author><![CDATA[Freaky2003]]></author>
                </item>

                </channel></rss>